<svg width="657.9px" height="122px" xmlns="http://www.w3.org/2000/svg" viewBox="-78.96247558593751 13.9893798828125 657.924951171875 122.021240234375" style="background: rgba(0, 0, 0, 0)" preserveAspectRatio="xMidYMid"><defs><filter id="editing-hole" x="-100%" y="-100%" width="300%" height="300%"><feFlood flood-color="#000" result="black"></feFlood><feMorphology operator="dilate" radius="2" in="SourceGraphic" result="erode"></feMorphology><feGaussianBlur in="erode" stdDeviation="4" result="blur"></feGaussianBlur><feOffset in="blur" dx="2" dy="2" result="offset"></feOffset><feComposite operator="atop" in="offset" in2="black" result="merge"></feComposite><feComposite operator="in" in="merge" in2="SourceGraphic" result="inner-shadow"></feComposite></filter></defs><g filter="url(#editing-hole)"><g transform="matrix(1.3,0,0,1.3,-42.7,144.3)"><path d="M 9.3 -33.2 L -4.6 -33.2 L 3.5 -75.5 L 17.6 -75.5 L 9.3 -33.2 Z M 65.1 -31.9 L 65.1 -31.9 L 65.1 -31.9 Q 57.3 -31.9 57.3 -38 L 57.3 -38 L 57.3 -38 Q 57.3 -40.6 58.4 -45.7 L 58.4 -45.7 L 58.4 -45.7 Q 59.6 -50.8 59.9 -52.8 L 59.9 -52.8 L 59.9 -52.8 Q 60.8 -57.5 60.8 -59 L 60.8 -59 L 60.8 -59 Q 60.8 -62.2 58.4 -62.2 L 58.4 -62.2 L 58.4 -62.2 Q 56.8 -62.2 55.3 -60 L 55.3 -60 L 55.3 -60 Q 53.7 -57.8 53 -53.4 L 53 -53.4 L 49.1 -33.2 L 36.6 -31.9 L 40 -49.4 L 40 -49.4 Q 40.6 -52.2 41.1 -55.5 L 41.1 -55.5 L 41.1 -55.5 Q 41.6 -58.8 41.6 -59.3 L 41.6 -59.3 L 41.6 -59.3 Q 41.6 -62.2 39.5 -62.2 L 39.5 -62.2 L 39.5 -62.2 Q 38 -62.2 36.4 -60 L 36.4 -60 L 36.4 -60 Q 34.8 -57.9 33.9 -53.4 L 33.9 -53.4 L 30 -33.2 L 17.4 -31.9 L 24.1 -65.9 L 34.5 -67.1 L 33.4 -60.7 L 33.4 -60.7 Q 35.1 -64.1 38.2 -65.6 L 38.2 -65.6 L 38.2 -65.6 Q 41.2 -67.1 46 -67.1 L 46 -67.1 L 46 -67.1 Q 48.8 -67.1 50.6 -65.8 L 50.6 -65.8 L 50.6 -65.8 Q 52.4 -64.5 53 -62.3 L 53 -62.3 L 53 -62.3 Q 54 -64.5 56.8 -65.8 L 56.8 -65.8 L 56.8 -65.8 Q 59.6 -67.1 63 -67.1 L 63 -67.1 L 63 -67.1 Q 66.5 -67.1 68.2 -66.4 L 68.2 -66.4 L 68.2 -66.4 Q 69.9 -65.7 70.9 -64.5 L 70.9 -64.5 L 70.9 -64.5 Q 72.6 -62.2 72.6 -58.1 L 72.6 -58.1 L 72.6 -58.1 Q 72.6 -54.1 70.9 -45.7 L 70.9 -45.7 L 70.9 -45.7 Q 70 -41.6 70 -40.1 L 70 -40.1 L 70 -40.1 Q 70 -38.6 70.8 -37.7 L 70.8 -37.7 L 70.8 -37.7 Q 71.7 -36.8 73 -36.7 L 73 -36.7 L 73 -36.7 Q 72.4 -34.5 70.1 -33.2 L 70.1 -33.2 L 70.1 -33.2 Q 67.9 -31.9 65.1 -31.9 Z M 80.7 -35.1 L 80.7 -35.1 L 80.7 -35.1 Q 79.2 -36.8 78.5 -39.4 L 78.5 -39.4 L 78.5 -39.4 Q 77.9 -42.1 77.9 -46.3 L 77.9 -46.3 L 77.9 -46.3 Q 77.9 -50.6 79.3 -54.5 L 79.3 -54.5 L 79.3 -54.5 Q 80.8 -58.4 83.5 -61.3 L 83.5 -61.3 L 83.5 -61.3 Q 89 -67.1 98.1 -67.1 L 98.1 -67.1 L 98.1 -67.1 Q 101.3 -67.1 103.7 -66.1 L 103.7 -66.1 L 114.7 -67.1 L 109.9 -42.2 L 109.9 -42.2 Q 109.7 -41.4 109.7 -40 L 109.7 -40 L 109.7 -40 Q 109.7 -38.6 110.6 -37.7 L 110.6 -37.7 L 110.6 -37.7 Q 111.5 -36.8 112.7 -36.7 L 112.7 -36.7 L 112.7 -36.7 Q 112.1 -34.5 109.8 -33.2 L 109.8 -33.2 L 109.8 -33.2 Q 107.4 -31.9 104.8 -31.9 L 104.8 -31.9 L 104.8 -31.9 Q 102.2 -31.9 100.4 -32.9 L 100.4 -32.9 L 100.4 -32.9 Q 98.7 -33.9 98.1 -35.6 L 98.1 -35.6 L 98.1 -35.6 Q 97.1 -34 94.9 -33 L 94.9 -33 L 94.9 -33 Q 92.8 -31.9 89.9 -31.9 L 89.9 -31.9 L 89.9 -31.9 Q 86.9 -31.9 84.6 -32.7 L 84.6 -32.7 L 84.6 -32.7 Q 82.2 -33.5 80.7 -35.1 Z M 94.2 -61.1 L 94.2 -61.1 L 94.2 -61.1 Q 93.5 -60 92.8 -58 L 92.8 -58 L 92.8 -58 Q 92.2 -56.1 91.1 -50.9 L 91.1 -50.9 L 91.1 -50.9 Q 90.1 -45.6 90.1 -41.9 L 90.1 -41.9 L 90.1 -41.9 Q 90.1 -38.2 90.7 -37.1 L 90.7 -37.1 L 90.7 -37.1 Q 91.2 -36 92.3 -36 L 92.3 -36 L 92.3 -36 Q 94.3 -36 95.8 -38 L 95.8 -38 L 95.8 -38 Q 97.3 -39.9 97.9 -43.4 L 97.9 -43.4 L 101.3 -62.2 L 101.3 -62.2 Q 99.9 -63.3 98.4 -63.3 L 98.4 -63.3 L 98.4 -63.3 Q 96.8 -63.3 95.9 -62.8 L 95.9 -62.8 L 95.9 -62.8 Q 94.9 -62.3 94.2 -61.1 Z M 122.4 -60 L 122.4 -60 L 122.4 -60 Q 124.6 -63 127.9 -65.1 L 127.9 -65.1 L 127.9 -65.1 Q 131.2 -67.1 135.2 -67.1 L 135.2 -67.1 L 135.2 -67.1 Q 139.2 -67.1 141.2 -65.9 L 141.2 -65.9 L 153.7 -67.1 L 149.3 -42.6 L 149.3 -42.6 Q 147.1 -30 142.4 -25.1 L 142.4 -25.1 L 142.4 -25.1 Q 137.8 -20.4 129 -20.4 L 129 -20.4 L 129 -20.4 Q 122.3 -20.4 118.4 -22.5 L 118.4 -22.5 L 118.4 -22.5 Q 114.6 -24.6 114.6 -28.2 L 114.6 -28.2 L 114.6 -28.2 Q 114.6 -30.8 116.6 -32.3 L 116.6 -32.3 L 116.6 -32.3 Q 118.6 -33.8 121.6 -33.8 L 121.6 -33.8 L 121.6 -33.8 Q 124.3 -33.8 126.4 -32.6 L 126.4 -32.6 L 126.4 -32.6 Q 127.6 -31.9 128.2 -31 L 128.2 -31 L 128.2 -31 Q 126.7 -29.8 126.7 -27.7 L 126.7 -27.7 L 126.7 -27.7 Q 126.7 -24.9 129.2 -24.9 L 129.2 -24.9 L 129.2 -24.9 Q 133.5 -24.9 136 -35 L 136 -35 L 136 -35 Q 136.7 -37.8 137.2 -40.5 L 137.2 -40.5 L 137.2 -40.5 Q 134.4 -37 127.8 -37 L 127.8 -37 L 127.8 -37 Q 123.3 -37 120.7 -39.2 L 120.7 -39.2 L 120.7 -39.2 Q 118 -41.4 118 -46.5 L 118 -46.5 L 118 -46.5 Q 118 -49.7 119.1 -53.3 L 119.1 -53.3 L 119.1 -53.3 Q 120.2 -56.9 122.4 -60 Z M 130.7 -46.3 L 130.7 -46.3 L 130.7 -46.3 Q 130.7 -41.9 133 -41.9 L 133 -41.9 L 133 -41.9 Q 134.5 -41.9 136 -43.6 L 136 -43.6 L 136 -43.6 Q 137.1 -44.9 137.6 -46.9 L 137.6 -46.9 L 140.8 -63.4 L 140.8 -63.4 Q 140.5 -63.4 140.2 -63.6 L 140.2 -63.6 L 140.2 -63.6 Q 139.6 -63.8 138.7 -63.8 L 138.7 -63.8 L 138.7 -63.8 Q 134.8 -63.8 132.5 -57.4 L 132.5 -57.4 L 132.5 -57.4 Q 130.7 -52.4 130.7 -46.3 Z M 182.1 -44 L 182.1 -44 L 182.1 -44 Q 183.7 -43 183.7 -40.6 L 183.7 -40.6 L 183.7 -40.6 Q 183.7 -38.2 182.5 -36.6 L 182.5 -36.6 L 182.5 -36.6 Q 181.3 -35.1 179.3 -34.1 L 179.3 -34.1 L 179.3 -34.1 Q 175.2 -31.9 170.8 -31.9 L 170.8 -31.9 L 170.8 -31.9 Q 166.4 -31.9 163.8 -32.9 L 163.8 -32.9 L 163.8 -32.9 Q 161.2 -33.9 159.5 -35.7 L 159.5 -35.7 L 159.5 -35.7 Q 156.1 -39 156.1 -45.3 L 156.1 -45.3 L 156.1 -45.3 Q 156.1 -54.9 161.3 -60.8 L 161.3 -60.8 L 161.3 -60.8 Q 166.9 -67.1 176.7 -67.1 L 176.7 -67.1 L 176.7 -67.1 Q 182.8 -67.1 185.8 -64.6 L 185.8 -64.6 L 185.8 -64.6 Q 188.1 -62.7 188.1 -59.5 L 188.1 -59.5 L 188.1 -59.5 Q 188.1 -48.3 168.6 -48.3 L 168.6 -48.3 L 168.6 -48.3 Q 168.4 -46.6 168.4 -45.2 L 168.4 -45.2 L 168.4 -45.2 Q 168.4 -42.2 169.7 -41.1 L 169.7 -41.1 L 169.7 -41.1 Q 171 -40 173.4 -40 L 173.4 -40 L 173.4 -40 Q 175.8 -40 178.4 -41.1 L 178.4 -41.1 L 178.4 -41.1 Q 181 -42.2 182.1 -44 Z M 169.1 -51 L 169.1 -51 L 169.1 -51 Q 173.6 -51 176.2 -53.8 L 176.2 -53.8 L 176.2 -53.8 Q 178.8 -56.5 178.8 -60.8 L 178.8 -60.8 L 178.8 -60.8 Q 178.8 -62.3 178.3 -63.1 L 178.3 -63.1 L 178.3 -63.1 Q 177.8 -63.9 176.7 -63.9 L 176.7 -63.9 L 176.7 -63.9 Q 175.6 -63.9 174.7 -63.5 L 174.7 -63.5 L 174.7 -63.5 Q 173.7 -63 172.8 -61.6 L 172.8 -61.6 L 172.8 -61.6 Q 170.4 -58.4 169.1 -51 Z M 209.4 -55.7 L 209.4 -55.7 L 209.4 -55.7 Q 210.3 -58.1 210.3 -60.1 L 210.3 -60.1 L 210.3 -60.1 Q 210.3 -63.9 207.2 -63.9 L 207.2 -63.9 L 207.2 -63.9 Q 205.6 -63.9 204.3 -62.4 L 204.3 -62.4 L 204.3 -62.4 Q 203 -61 203 -59.2 L 203 -59.2 L 203 -59.2 Q 203 -57.9 204 -56.9 L 204 -56.9 L 204 -56.9 Q 205.5 -55.5 209.2 -53.2 L 209.2 -53.2 L 209.2 -53.2 Q 213 -50.9 214.5 -49 L 214.5 -49 L 214.5 -49 Q 215.9 -47.1 215.9 -44.5 L 215.9 -44.5 L 215.9 -44.5 Q 215.9 -41.9 214.7 -39.6 L 214.7 -39.6 L 214.7 -39.6 Q 213.4 -37.2 211.2 -35.5 L 211.2 -35.5 L 211.2 -35.5 Q 206.4 -31.9 198.7 -31.9 L 198.7 -31.9 L 198.7 -31.9 Q 194.5 -31.9 191.3 -34.1 L 191.3 -34.1 L 191.3 -34.1 Q 188.1 -36.2 188.1 -38.7 L 188.1 -38.7 L 188.1 -38.7 Q 188.1 -41.2 190 -42.7 L 190 -42.7 L 190 -42.7 Q 191.8 -44.2 194.5 -44.2 L 194.5 -44.2 L 194.5 -44.2 Q 197.2 -44.2 198.8 -43.1 L 198.8 -43.1 L 198.8 -43.1 Q 198 -41 198 -39.6 L 198 -39.6 L 198 -39.6 Q 198 -35.4 201.6 -35.4 L 201.6 -35.4 L 201.6 -35.4 Q 203.1 -35.4 204.1 -36.4 L 204.1 -36.4 L 204.1 -36.4 Q 205.2 -37.3 205.2 -39 L 205.2 -39 L 205.2 -39 Q 205.2 -42.2 199.6 -45.7 L 199.6 -45.7 L 199.6 -45.7 Q 195.2 -48.6 194.1 -49.8 L 194.1 -49.8 L 194.1 -49.8 Q 192.4 -51.8 192.4 -54.4 L 192.4 -54.4 L 192.4 -54.4 Q 192.4 -57 193.6 -59.4 L 193.6 -59.4 L 193.6 -59.4 Q 194.8 -61.8 197.1 -63.6 L 197.1 -63.6 L 197.1 -63.6 Q 201.8 -67.1 209.9 -67.1 L 209.9 -67.1 L 209.9 -67.1 Q 214 -67.1 216.5 -65.5 L 216.5 -65.5 L 216.5 -65.5 Q 219 -63.8 219 -61 L 219 -61 L 219 -61 Q 219 -58.2 217.3 -56.6 L 217.3 -56.6 L 217.3 -56.6 Q 215.6 -55 212.5 -55 L 212.5 -55 L 212.5 -55 Q 210.4 -55 209.4 -55.7 Z M 260.4 -53.8 L 273.4 -55 L 273.4 -55 Q 268.8 -44.9 268.8 -33.2 L 268.8 -33.2 L 268.8 -33.2 Q 267 -31.9 264.5 -31.9 L 264.5 -31.9 L 264.5 -31.9 Q 262 -31.9 260.4 -33.1 L 260.4 -33.1 L 260.4 -33.1 Q 258.8 -34.3 258.5 -35.5 L 258.5 -35.5 L 258.5 -35.5 Q 256.9 -33.9 254.3 -32.9 L 254.3 -32.9 L 254.3 -32.9 Q 251.7 -31.9 248.9 -31.9 L 248.9 -31.9 L 248.9 -31.9 Q 246.2 -31.9 243.8 -32.8 L 243.8 -32.8 L 243.8 -32.8 Q 241.4 -33.7 239.5 -35.7 L 239.5 -35.7 L 239.5 -35.7 Q 235.4 -40.1 235.4 -48.3 L 235.4 -48.3 L 235.4 -48.3 Q 235.4 -61.1 242.3 -68.8 L 242.3 -68.8 L 242.3 -68.8 Q 249.3 -76.7 261.8 -76.7 L 261.8 -76.7 L 261.8 -76.7 Q 270.4 -76.7 273.5 -72.3 L 273.5 -72.3 L 273.5 -72.3 Q 274.5 -70.9 274.5 -69.2 L 274.5 -69.2 L 274.5 -69.2 Q 274.5 -67.5 273.7 -66 L 273.7 -66 L 273.7 -66 Q 273 -64.6 271.8 -63.4 L 271.8 -63.4 L 271.8 -63.4 Q 269.1 -60.9 265.7 -60.9 L 265.7 -60.9 L 265.7 -60.9 Q 264.4 -60.9 263.1 -61.3 L 263.1 -61.3 L 263.1 -61.3 Q 263.3 -63.2 263.3 -65.5 L 263.3 -65.5 L 263.3 -65.5 Q 263.3 -67.7 263.2 -68.7 L 263.2 -68.7 L 263.2 -68.7 Q 263 -69.8 262.6 -70.6 L 262.6 -70.6 L 262.6 -70.6 Q 261.8 -72.3 260 -72.3 L 260 -72.3 L 260 -72.3 Q 258.1 -72.3 256.1 -70.4 L 256.1 -70.4 L 256.1 -70.4 Q 254.1 -68.4 252.5 -65.2 L 252.5 -65.2 L 252.5 -65.2 Q 249 -58.1 249 -49.4 L 249 -49.4 L 249 -49.4 Q 249 -45.4 250.5 -42.6 L 250.5 -42.6 L 250.5 -42.6 Q 252.2 -39.6 255.1 -39.6 L 255.1 -39.6 L 255.1 -39.6 Q 256.2 -39.6 257.1 -40.1 L 257.1 -40.1 L 257.1 -40.1 Q 258 -40.6 258.4 -41 L 258.4 -41 L 260.4 -53.8 Z M 279.3 -35.1 L 279.3 -35.1 L 279.3 -35.1 Q 277.8 -36.8 277.1 -39.4 L 277.1 -39.4 L 277.1 -39.4 Q 276.4 -42.1 276.4 -46.3 L 276.4 -46.3 L 276.4 -46.3 Q 276.4 -50.6 277.9 -54.5 L 277.9 -54.5 L 277.9 -54.5 Q 279.4 -58.4 282.1 -61.3 L 282.1 -61.3 L 282.1 -61.3 Q 287.6 -67.1 296.7 -67.1 L 296.7 -67.1 L 296.7 -67.1 Q 299.9 -67.1 302.3 -66.1 L 302.3 -66.1 L 313.2 -67.1 L 308.5 -42.2 L 308.5 -42.2 Q 308.3 -41.4 308.3 -40 L 308.3 -40 L 308.3 -40 Q 308.3 -38.6 309.2 -37.7 L 309.2 -37.7 L 309.2 -37.7 Q 310 -36.8 311.3 -36.7 L 311.3 -36.7 L 311.3 -36.7 Q 310.7 -34.5 308.4 -33.2 L 308.4 -33.2 L 308.4 -33.2 Q 306 -31.9 303.4 -31.9 L 303.4 -31.9 L 303.4 -31.9 Q 300.8 -31.9 299 -32.9 L 299 -32.9 L 299 -32.9 Q 297.2 -33.9 296.7 -35.6 L 296.7 -35.6 L 296.7 -35.6 Q 295.7 -34 293.5 -33 L 293.5 -33 L 293.5 -33 Q 291.4 -31.9 288.4 -31.9 L 288.4 -31.9 L 288.4 -31.9 Q 285.5 -31.9 283.2 -32.7 L 283.2 -32.7 L 283.2 -32.7 Q 280.8 -33.5 279.3 -35.1 Z M 292.8 -61.1 L 292.8 -61.1 L 292.8 -61.1 Q 292.1 -60 291.4 -58 L 291.4 -58 L 291.4 -58 Q 290.8 -56.1 289.7 -50.9 L 289.7 -50.9 L 289.7 -50.9 Q 288.7 -45.6 288.7 -41.9 L 288.7 -41.9 L 288.7 -41.9 Q 288.7 -38.2 289.2 -37.1 L 289.2 -37.1 L 289.2 -37.1 Q 289.8 -36 290.8 -36 L 290.8 -36 L 290.8 -36 Q 292.9 -36 294.4 -38 L 294.4 -38 L 294.4 -38 Q 295.9 -39.9 296.5 -43.4 L 296.5 -43.4 L 299.9 -62.2 L 299.9 -62.2 Q 298.5 -63.3 297 -63.3 L 297 -63.3 L 297 -63.3 Q 295.4 -63.3 294.5 -62.8 L 294.5 -62.8 L 294.5 -62.8 Q 293.5 -62.3 292.8 -61.1 Z M 332 -36.7 L 332 -36.7 L 332 -36.7 Q 330 -31.9 323.7 -31.9 L 323.7 -31.9 L 323.7 -31.9 Q 320.5 -31.9 318.4 -34.2 L 318.4 -34.2 L 318.4 -34.2 Q 316.8 -36 316.8 -38.2 L 316.8 -38.2 L 316.8 -38.2 Q 316.8 -43 319 -53.4 L 319 -53.4 L 323.7 -78 L 336.7 -79.3 L 330.5 -46.9 L 330.5 -46.9 Q 329.4 -42.2 329.4 -40.5 L 329.4 -40.5 L 329.4 -40.5 Q 329.4 -36.9 332 -36.7 Z M 352.7 -36.7 L 352.7 -36.7 L 352.7 -36.7 Q 350.8 -31.9 344.4 -31.9 L 344.4 -31.9 L 344.4 -31.9 Q 341.2 -31.9 339.2 -34.2 L 339.2 -34.2 L 339.2 -34.2 Q 337.5 -36 337.5 -38.2 L 337.5 -38.2 L 337.5 -38.2 Q 337.5 -43 339.7 -53.4 L 339.7 -53.4 L 344.4 -78 L 357.4 -79.3 L 351.2 -46.9 L 351.2 -46.9 Q 350.1 -42.2 350.1 -40.5 L 350.1 -40.5 L 350.1 -40.5 Q 350.1 -36.9 352.7 -36.7 Z M 384.1 -44 L 384.1 -44 L 384.1 -44 Q 385.7 -43 385.7 -40.6 L 385.7 -40.6 L 385.7 -40.6 Q 385.7 -38.2 384.5 -36.6 L 384.5 -36.6 L 384.5 -36.6 Q 383.3 -35.1 381.3 -34.1 L 381.3 -34.1 L 381.3 -34.1 Q 377.2 -31.9 372.8 -31.9 L 372.8 -31.9 L 372.8 -31.9 Q 368.4 -31.9 365.8 -32.9 L 365.8 -32.9 L 365.8 -32.9 Q 363.2 -33.9 361.4 -35.7 L 361.4 -35.7 L 361.4 -35.7 Q 358 -39 358 -45.3 L 358 -45.3 L 358 -45.3 Q 358 -54.9 363.3 -60.8 L 363.3 -60.8 L 363.3 -60.8 Q 368.9 -67.1 378.7 -67.1 L 378.7 -67.1 L 378.7 -67.1 Q 384.8 -67.1 387.8 -64.6 L 387.8 -64.6 L 387.8 -64.6 Q 390 -62.7 390 -59.5 L 390 -59.5 L 390 -59.5 Q 390 -48.3 370.6 -48.3 L 370.6 -48.3 L 370.6 -48.3 Q 370.3 -46.6 370.3 -45.2 L 370.3 -45.2 L 370.3 -45.2 Q 370.3 -42.2 371.6 -41.1 L 371.6 -41.1 L 371.6 -41.1 Q 373 -40 375.4 -40 L 375.4 -40 L 375.4 -40 Q 377.8 -40 380.4 -41.1 L 380.4 -41.1 L 380.4 -41.1 Q 383 -42.2 384.1 -44 Z M 371 -51 L 371 -51 L 371 -51 Q 375.6 -51 378.2 -53.8 L 378.2 -53.8 L 378.2 -53.8 Q 380.8 -56.5 380.8 -60.8 L 380.8 -60.8 L 380.8 -60.8 Q 380.8 -62.3 380.3 -63.1 L 380.3 -63.1 L 380.3 -63.1 Q 379.7 -63.9 378.7 -63.9 L 378.7 -63.9 L 378.7 -63.9 Q 377.6 -63.9 376.6 -63.5 L 376.6 -63.5 L 376.6 -63.5 Q 375.7 -63 374.8 -61.6 L 374.8 -61.6 L 374.8 -61.6 Q 372.4 -58.4 371 -51 Z M 412.3 -51.2 L 412.3 -51.2 L 412.3 -51.2 Q 414.6 -55.3 414.6 -59.5 L 414.6 -59.5 L 414.6 -59.5 Q 414.6 -62.2 412.6 -62.2 L 412.6 -62.2 L 412.6 -62.2 Q 411 -62.2 409.4 -59.6 L 409.4 -59.6 L 409.4 -59.6 Q 407.8 -57 407.3 -53.6 L 407.3 -53.6 L 403.9 -33.2 L 390.7 -31.9 L 397.2 -65.9 L 407.8 -67.1 L 406.6 -60.7 L 406.6 -60.7 Q 409.8 -67.1 416.8 -67.1 L 416.8 -67.1 L 416.8 -67.1 Q 420.5 -67.1 422.5 -65.2 L 422.5 -65.2 L 422.5 -65.2 Q 424.5 -63.3 424.5 -59.4 L 424.5 -59.4 L 424.5 -59.4 Q 424.5 -55.4 422 -52.9 L 422 -52.9 L 422 -52.9 Q 419.4 -50.4 414.9 -50.4 L 414.9 -50.4 L 414.9 -50.4 Q 413 -50.4 412.3 -51.2 Z M 445.9 -40.5 L 445.9 -40.5 L 445.9 -40.5 Q 442.6 -37 436.5 -37 L 436.5 -37 L 436.5 -37 Q 428.9 -37 427.3 -42.6 L 427.3 -42.6 L 427.3 -42.6 Q 426.8 -44.2 426.8 -46.1 L 426.8 -46.1 L 426.8 -46.1 Q 426.8 -47.9 427.2 -49.9 L 427.2 -49.9 L 430.2 -65.9 L 443.2 -67.1 L 439.6 -48.5 L 439.6 -48.5 Q 439.5 -47.7 439.3 -46.8 L 439.3 -46.8 L 439.3 -46.8 Q 439.1 -45.9 439.1 -45 L 439.1 -45 L 439.1 -45 Q 439.1 -44 439.5 -43.4 L 439.5 -43.4 L 439.5 -43.4 Q 439.8 -42.8 440.2 -42.4 L 440.2 -42.4 L 440.2 -42.4 Q 441 -41.9 442.4 -41.9 L 442.4 -41.9 L 442.4 -41.9 Q 443.7 -41.9 444.9 -43.6 L 444.9 -43.6 L 444.9 -43.6 Q 446.1 -45.3 446.7 -48.1 L 446.7 -48.1 L 450.2 -65.9 L 462.8 -67.1 L 458 -42 L 458 -42 Q 455.6 -29.7 450.8 -24.8 L 450.8 -24.8 L 450.8 -24.8 Q 448.3 -22.3 445.1 -21.4 L 445.1 -21.4 L 445.1 -21.4 Q 441.8 -20.4 437.7 -20.4 L 437.7 -20.4 L 437.7 -20.4 Q 430.9 -20.4 427.1 -22.5 L 427.1 -22.5 L 427.1 -22.5 Q 423.3 -24.6 423.3 -28.1 L 423.3 -28.1 L 423.3 -28.1 Q 423.3 -30.7 425.2 -32.2 L 425.2 -32.2 L 425.2 -32.2 Q 427.2 -33.7 430.3 -33.7 L 430.3 -33.7 L 430.3 -33.7 Q 433 -33.7 435 -32.6 L 435 -32.6 L 435 -32.6 Q 436.3 -31.9 436.8 -31 L 436.8 -31 L 436.8 -31 Q 435.4 -29.7 435.4 -27.6 L 435.4 -27.6 L 435.4 -27.6 Q 435.4 -24.8 437.9 -24.8 L 437.9 -24.8 L 437.9 -24.8 Q 442.1 -24.8 444.6 -34.5 L 444.6 -34.5 L 444.6 -34.5 Q 445.3 -37.4 445.9 -40.5 Z" fill="#cccccc"></path></g></g><style>text {
  font-size: 64px;
  font-family: Arial Black;
  dominant-baseline: central;
  text-anchor: middle;
}</style></svg>